<svg xmlns="http://www.w3.org/2000/svg" width="385.25" height="289.25" viewBox="0 0 385.25 289.25"><title>Le bois d’en bas</title><path fill="#000" fill-rule="evenodd" d="M228.1 0C230.3 0 232.6 -0.1 234.7 0.5C236.8 1.1 238.9 2.2 240.7 3.5C242.1 4.6 243.2 6 244 7.6C244.4 8.3 244.3 9.2 244 9.9C243.6 10.8 242.9 11.4 242.2 12C208.1 44.5 177 80.4 139.7 109.2C131.7 115.4 109.8 114.5 109.8 114.5C109.8 114.5 113.2 110.2 115 108.3C127.5 95.3 140.1 82.4 152.8 69.5C167.4 54.7 182 39.9 196.8 25.3C205 17.2 213.3 9.3 221.8 1.5C222.4 1 223.1 0.7 223.8 0.5C225.2 0.2 226.7 0 228.1 0ZM367.1 25.8C371.3 25.5 375.5 25.5 379.6 25.8C380.4 25.8 381.7 26.6 381.7 26.6C381.7 26.6 379.6 31.6 378 33.7C374.3 38.5 369.7 42.6 365.8 47.3C364.5 48.8 363.2 50.5 362.3 52.3C361.3 54.1 360.4 55.9 360 57.8C359.6 60 359.6 62.2 359.8 64.4C359.9 66.6 360.4 68.8 361 70.9C361.5 72.7 362.4 74.3 363.3 75.9C364.5 78.3 365.8 80.5 367.3 82.7C370.7 87.8 374.6 92.6 378 97.8C379.5 100.1 380.8 102.5 381.7 105.1C382.8 107.9 383.7 110.8 384 113.9C384.4 117.8 384.2 121.7 384 125.6C383.9 127 384.4 128.9 383.2 129.7C381.2 131.1 378.4 130.9 375.9 131.2C372 131.8 368.1 132.2 364.1 132.2C357.7 132.4 351.3 132.6 344.9 132C340 131.6 335.3 130.4 330.6 129.2C327.6 128.5 324.7 127.4 321.8 126.2C318.8 125 315.9 123.7 313.1 122.2C312.8 122.1 312.8 121.6 312.8 121.6C312.8 121.6 313.3 121.3 313.6 121.3C316.1 121.1 318.7 121.2 321.2 121C322.9 120.8 324.5 120.5 326.2 120C327.7 119.6 329.2 119.2 330.5 118.2C331.9 117.1 333.3 115.7 334 113.9C334.6 112.4 334.4 110.7 334 109.1C333.4 106.3 332.3 103.6 331 101.1C327.6 94.6 323.3 88.7 320 82.2C317.2 76.7 315.4 70.7 312.7 65.1C310.7 60.9 308 57.1 306 52.9C305.3 51.4 304.6 49.6 304.5 47.9C304.4 46.3 304.7 44.8 305.3 43.3C305.6 42.3 306.3 41.5 307 40.8C308.2 39.6 309.5 38.3 311 37.5C314.9 35.5 318.9 33.5 323.1 32.3C330.6 30.1 338.3 28.6 346.1 27.5C353 26.5 360.1 26.1 367.1 25.8ZM219.4 50.8C219.6 50.5 220.2 50.9 220.2 50.9C220.2 50.9 220.1 53 219.7 53.9C217.1 60.9 213.7 67.5 211.3 74.6C210.2 77.7 209.6 81.1 209.3 84.4C209.2 84.8 209.7 85.1 210.1 85.2C210.9 85.5 211.8 85.5 212.6 85.5C217.1 85.5 221.7 85.6 226.2 85.2C226.6 85.2 227 84.8 227 84.4C227.2 82.9 226.6 81.4 226.8 79.9C226.8 79.1 226.8 77.9 227.5 77.8C230.2 77.2 233 77.5 235.7 77.8C236.2 77.8 236.6 78.4 236.7 78.8C237.5 81.3 237.2 84.1 238.3 86.4C239.1 88.2 242.2 90.9 242.2 90.9C242.2 90.9 241.7 91.8 241.2 92C240 92.5 237.5 92.8 237.5 92.8C237.5 92.8 238.1 98.9 237 101.7C236.6 102.8 234.8 102.7 233.6 102.8C231.6 102.8 227.5 102 227.5 102L226.7 95C226.7 95 214.3 94.8 208.1 95C207.8 95 207.3 95.2 207.3 95.6C207 96.7 207.1 98 207.2 99.1C207.6 101.4 208.6 103.6 209 105.8C209.1 106.6 208.7 108 208.7 108C208.7 108 194.5 105.9 187.4 105.5C180.5 105.1 166.8 105.5 166.8 105.5C166.8 105.5 166.4 104.8 166.5 104.5C167.2 103.4 168.3 102.5 169.3 101.5C185.9 84.6 202.5 67.5 219.4 50.8ZM33.6 64.8C37.7 64.7 41.8 64.9 45.9 65.2C47.5 65.4 49.1 65.7 50.7 66.3C53.5 67.2 56.3 68.2 58.9 69.5C60.9 70.5 62.8 71.8 64.5 73.3C65.7 74.4 66.8 75.7 67.7 77C68.7 78.4 69.5 80 70 81.6C70.6 83.4 71 85.4 71 87.4C71 89.9 70.8 92.5 70 94.9C69.3 97.1 68.1 99.2 66.7 101C63.8 104.7 60 107.8 57 111.5C55.8 113.1 54.8 114.8 54 116.6C53.4 117.8 53.2 119.2 53 120.6C52.8 121.9 52.8 123.2 53 124.4C53.2 125.9 54.1 127.2 54.2 128.6C54.3 129.2 54.3 130.1 53.7 130.2C48.1 132 42.2 133.1 36.4 134.2C29.5 135.6 15.6 137.7 15.6 137.7C15.6 137.7 14.9 136.7 15 136.1C15.7 131.7 17.6 127.5 18 123.1C18.2 120.8 17.7 118.3 17 116.1C16.3 113.9 15.1 111.9 13.7 110C10.8 106.1 7.1 102.6 4 98.7C3.3 97.8 2.8 96.7 2.3 95.7C1.8 94.6 1.1 93.6 1 92.4C0.7 89.7 0.5 87 1 84.3C1.5 82 2.6 79.7 4 77.8C6 75.3 8.4 73.1 11 71.3C13.6 69.5 16.6 68.3 19.6 67.3C22.2 66.3 25 65.8 27.8 65.3C29.7 64.9 31.7 64.8 33.6 64.8ZM51.1 75C50.6 75 50 75.3 49.8 75.8C49.5 76.3 49.8 76.9 50 77.4C51.5 80.5 53.6 83.4 55 86.6C55.6 87.9 55.3 89.5 56 90.7C56.3 91.1 57 91.1 57.4 91C58.9 90.7 60.4 90.2 61.7 89.5C62.5 89 63.2 88.3 63.7 87.5C64.2 86.8 64.5 86 64.5 85.1C64.6 83.9 64.3 82.6 64 81.3C63.8 80.7 63.5 80 63 79.5C61.5 78.1 60.1 76.3 58.2 75.5C56 74.7 53.5 74.9 51.1 75ZM172.4 108.2C179.8 108.1 187.2 108.5 194.6 109.2C203.4 110.2 212.1 111.6 220.7 113.3C229.2 114.9 237.6 117 245.9 119.3C262.7 123.7 279.2 129 296.1 133.2C305.8 135.7 315.7 137.7 325.6 139.2C335.1 140.7 344.7 141.7 354.4 142.2C361.3 142.7 368.2 142.4 375.1 142.2C377.7 142.2 382.7 141.5 382.7 141.5C382.7 141.5 383.9 144.2 384 145.6C384.3 149.4 384.3 153.2 383.7 156.9C383.7 157.4 382.9 157.5 382.4 157.5C255.1 157.7 127.9 157.7 0.6 157.5C0.3 157.5 0 157.2 0 156.9C-0.1 151.8 0.3 141.5 0.3 141.5C0.3 141.5 15.1 140.8 22.4 140C28.2 139.4 34 138.4 39.7 137.2C48.4 135.5 57.1 133.6 65.7 131.2C79.3 127.6 92.7 123 106.3 119.3C114.5 117 122.8 115 131.1 113.3C137 112 143.1 111 149.1 110.2C156.8 109.3 164.6 108.4 172.4 108.2ZM211.1 163.2C214 163 217 162.9 219.9 163.2C220.7 163.3 221.3 164.4 222.1 164.5C223.8 164.8 225.7 164.2 227.4 164.5C228.5 164.7 229.3 165.6 230.3 166C231.1 166.2 232 165.9 232.7 166.3C233.7 166.8 234.3 168 235.3 168.5C236.3 169 237.5 168.8 238.4 169.3C239.4 169.7 240.1 170.7 241.1 171.2C241.7 171.6 242.6 171.3 243.2 171.8C244.4 172.7 245 174.3 246.3 175.2C246.8 175.6 247.7 175.1 248.2 175.5C249.3 176.5 249.8 178.1 250.8 179.2C251.7 180.2 253 180.8 254 181.8C254.6 182.5 255.2 183.4 255.5 184.3C255.8 185.1 255.4 186.1 255.8 186.9C256.5 188.5 258.1 189.5 258.7 191.1C259 191.7 257.9 192.3 258 192.9C258.2 193.6 259.3 193.9 259.5 194.6C259.8 195.8 259.3 197.1 259.5 198.4C259.7 199.7 260.5 200.8 260.7 202.1C260.9 203 260.9 204 260.8 204.9C260.4 206.8 259.4 208.6 259 210.6C258.9 211.4 259.4 212.3 259.2 213.1C259.1 213.9 258.4 214.4 258.3 215.1C258.1 215.8 258.5 216.7 258.2 217.4C257.9 218.3 256.9 218.9 256.5 219.8C256 221 256.2 222.3 255.7 223.4C255.2 224.7 254.5 225.9 253.7 227C252.6 228.5 251.4 230 250 231.2C249.2 231.8 248 231.7 247.3 232.3C246.4 233 246.2 234.4 245.2 235C244.2 235.5 242.8 234.8 241.8 235.3C241.1 235.6 241.1 236.6 240.5 237C239.3 237.7 237.9 237.8 236.8 238.5C235.9 239.1 235.6 240.4 234.7 240.7C233.7 241.1 232.6 240 231.6 240.3C230.1 240.6 228.9 241.9 227.4 242.2C225.6 242.7 223.7 242.3 221.9 242.5C221.2 242.6 220.6 243.2 219.9 243.2C216.4 243.5 212.8 243.7 209.4 243.2C207.6 243 206.2 241.6 204.4 241.3C202.5 240.9 200.4 241.6 198.6 241C196 240.2 193.7 238.6 191.3 237.2C190.7 236.9 190.4 236.1 189.7 235.8C188.8 235.4 187.7 235.6 186.8 235.2C186.1 235 185.5 234.5 185 234C184.3 233 184 231.7 183.2 230.8C182.8 230.3 182 230.4 181.5 230C181.1 229.5 181.2 228.7 180.7 228.3C180 227.6 178.9 227.7 178.3 227C177.7 226.3 177.9 225.2 177.5 224.5C177.2 224.2 176.5 224.3 176.3 224C175.9 223.5 176.1 222.8 175.7 222.3C175 221.2 173.8 220.5 173 219.5C172.7 219 172.4 218.5 172.3 217.9C172 216.7 172.4 215.3 172 214.1C171.7 213.1 170.6 212.6 170.3 211.7C169.9 210.6 169.8 209.5 170 208.4C170.1 207.6 171 207.1 171 206.4C171 205.8 170.1 205.5 170 204.9C169.7 202.5 169.5 200 170 197.6C170.2 196.8 171.5 196.7 171.7 195.9C172 195.2 171 194.4 171.3 193.6C171.5 192.7 172.6 192.3 173 191.4C173.4 190.6 173 189.4 173.5 188.6C173.8 188 175 188.1 175.2 187.4C175.7 186.2 174.9 184.8 175.3 183.5C175.6 182.6 176.5 181.9 177.3 181.3C179.2 179.9 181.5 179 183.2 177.5C184.1 176.7 184.1 175.1 185 174.3C185.7 173.6 186.9 173.8 187.7 173.2C188.5 172.7 188.8 171.7 189.6 171.3C190 171 190.7 171.5 191.2 171.2C191.9 170.8 192.1 169.7 192.8 169.3C193.7 168.7 195 168.9 195.9 168.5C198.9 167.2 201.6 165.3 204.6 164.3C205.6 163.9 206.8 164.4 207.9 164.2C209 164.1 210 163.3 211.1 163.2ZM212.6 167.8C211.3 167.8 209.9 167.9 208.6 168.3C208.2 168.4 208 169.2 208 169.2C208 169.2 208.5 169.5 208.8 169.5C211.8 169.6 214.7 169.2 217.6 169.5C222.8 170.1 228 170.8 232.9 172.3C234.6 172.7 235.6 174.4 237.1 175.2C238.1 175.8 239.5 175.7 240.5 176.5C242.9 178.5 244.3 181.6 246.8 183.5C247.4 183.9 249 182.9 249 182.9C249 182.9 243.4 176.8 240 174.5C238 173.2 235.4 173.2 233.3 172.2C232.4 171.8 231.9 170.6 230.9 170.3C228 169.2 225 168.7 221.9 168.2C218.8 167.8 215.7 167.7 212.6 167.8ZM204.1 169C203.4 169.1 202.5 169.4 202 170C201.7 170.4 202.1 171.5 202.1 171.5L207.8 169.4C207.8 169.4 205.3 168.9 204.1 169ZM355.6 169.8C360.7 169.8 365.7 170.3 370.7 171.3C374 171.9 377.3 173.2 380.5 174.5C380.9 174.7 381.2 175.3 381.2 175.9C381.4 180.1 381 188.7 381 188.7C381 188.7 376.9 186.2 374.7 185.3C372.3 184.2 369.7 183.2 367.2 182.5C364.9 181.9 362.5 181.4 360.1 181.2C357.5 181 354.8 181 352.1 181.2C350.4 181.4 348.7 181.7 347.1 182.3C345.7 182.7 344.2 183.4 343 184.3C342.2 184.9 341.2 185.8 341 186.8C340.8 188.1 341.2 189.5 342 190.4C343.3 192 345 193.4 346.8 194.2C354.2 197.7 362.1 199.8 369.4 203.3C372.9 204.9 376.2 207 379.2 209.3C380.7 210.4 381.9 212 383 213.5C383.7 214.6 384.5 215.8 384.7 217.1C385.2 220 385.5 223 385 225.9C384.6 228.1 383.3 229.9 382 231.7C381 233 379.8 234 378.5 235C376.8 236.2 375 237.2 373.2 238C371 238.9 368.7 239.7 366.4 240.2C364.2 240.8 361.9 241.1 359.6 241.2C356 241.5 352.3 241.6 348.6 241.2C344.6 240.9 340.5 240.2 336.6 239.2C333.5 238.5 330.5 237.2 327.6 236C326.7 235.6 325.4 235.4 325.3 234.4C324.7 229.4 325.6 219.3 325.6 219.3C325.6 219.3 329.9 222.7 332.3 224.2C334.1 225.4 336 226.5 338.1 227.2C341.6 228.5 345.2 229.4 348.9 230C351.7 230.4 354.6 230.4 357.4 230.2C359 230.2 360.6 229.8 362.2 229.2C363.6 228.8 365 228.1 366.2 227.2C367.3 226.4 368.2 225.4 368.7 224.2C369.1 223.2 369 222 368.7 221.1C368.4 220.1 367.7 219.3 367 218.5C366.2 217.7 365.2 216.9 364.2 216.3C361.7 214.8 359.1 213.4 356.4 212.3C352.6 210.6 348.6 209.6 344.8 208C341.4 206.6 338 205.1 334.8 203.2C332.3 201.8 329.9 200.1 328 198C326.6 196.3 325.7 194.2 325 192.2C324.6 190.9 324.6 189.5 324.8 188.1C324.9 186.3 325.1 184.4 326 182.8C327.4 180.4 329.2 178.3 331.3 176.5C333 175.1 335 174.2 337.1 173.3C338.9 172.4 340.8 171.6 342.8 171.3C347 170.5 351.3 169.8 355.6 169.8ZM215.1 170.8C212 170.7 208.8 170.9 205.6 171.3C205.3 171.3 204.9 171.5 204.8 171.8C204.6 172.1 204.9 172.7 204.9 172.7L203 172.3C203 172.3 202.8 173.1 203 173.4C203.5 174.4 204.5 175.1 205 176.1C205.5 177 205.5 178.1 206 179C206.2 179.3 206.8 179.2 207 179.6C207.2 180 206.8 180.5 207 180.9C207.7 182.5 208 184.6 209.5 185.2C212.2 186.3 215.3 185 218.2 185.3C219 185.3 219.7 186.1 220.6 186.2C221.4 186.4 222.2 186 222.9 186.3C223.4 186.4 223.6 187.1 224.1 187.2C224.8 187.5 225.5 187 226.2 187.3C227.1 187.6 228.5 188.8 228.5 188.8L223.5 195.1C223.5 195.1 226.1 197 227 198.3C227.3 198.8 226.8 199.6 227 200.2C227.1 200.5 227.7 200.3 227.7 200.6C228.1 202.4 228.2 204.3 228 206.1C227.9 207.3 227.6 208.4 227 209.4C226.4 210.5 225.5 211.5 224.5 212.2C223.2 213.1 221.6 213.4 220.3 214.3C220 214.5 220 215.1 219.7 215.2C219.3 215.4 218.7 215 218.3 215.3C217.7 215.6 217.6 216.6 216.9 216.7C215.4 217.1 212.1 216.5 212.1 216.5L211.7 215.3C211.7 215.3 210.1 215.5 209.3 215.2C209 215.1 209 214.4 208.7 214.3C208.2 214 207.5 214.5 207 214.2C205.9 213.5 205.1 212.3 204.3 211.2C203.6 210.2 203.4 209 202.7 208C202.5 207.8 201.8 208 201.8 208L201.3 209.5C201.3 209.5 200.9 208.9 201 208.6C201.3 207.6 202.1 206.7 202.2 205.6C202.4 204.5 201.7 202.3 201.7 202.3C201.7 202.3 198.2 202.8 196.4 202.8C195.8 202.7 194.8 202.3 194.8 202.3C194.8 202.3 194.8 205.4 195 206.9C195.2 208 195.4 209.1 196 209.9C197.5 212.2 199 214.5 201 216.2C203.4 218.3 206.1 220.1 209.1 221.2C211.5 222.2 216.7 222.2 216.7 222.2C216.7 222.2 211.7 222.9 209.3 222.2C206.7 221.5 202.3 218.3 202.3 218.3C202.3 218.3 193.1 226.2 188.8 230.4C188.5 230.6 188.6 231 188.8 231.2C190.3 232.6 192 234 193.8 235C196.8 236.6 200.1 237.8 203.3 238.7C206.2 239.6 209.1 240.3 212.1 240.5C215.1 240.7 218.1 240.4 221.1 240C223.8 239.7 226.4 239.2 228.9 238.5C229.4 238.4 230 237.6 230 237.6C230 237.6 228.8 237 228.5 236.4C228.2 236 228.5 234.8 228.5 234.8L224.8 234.9C224.8 234.9 226.4 234.8 227.2 234.5C227.5 234.3 227.8 233.5 227.8 233.5C227.8 233.5 228.7 233.5 229 233.8C230 234.8 231.6 237.2 231.6 237.2C231.6 237.2 235.1 236.3 236.7 235.5C237.8 234.9 238.5 233.7 239.5 233C240.5 232.4 241.7 232.3 242.7 231.7C244.2 230.9 245.7 229.9 247 228.7C247.2 228.5 246.8 227.9 247 227.6C247.4 226.9 248.5 225.9 248.5 225.9C248.5 225.9 247.9 225 247.4 224.8C247.1 224.6 246.3 225 246.3 225L246.2 224C246.2 224 245.3 224 245 223.7C244.7 223.4 244.9 222.6 244.5 222.3C244 221.9 243.2 222.1 242.8 221.7C242.5 221.5 243 220.9 242.7 220.6C242.4 220.2 241.6 220.3 241.3 220C241.1 219.7 241.3 219 241.3 219C241.3 219 246.6 222.5 249.4 224C249.6 224.1 250 224.2 250.2 224C251.3 222.6 252.2 221 253 219.4C253.2 219 253.3 218.3 253 218C251.9 217.1 249.1 216 249.1 216C249.1 216 248.4 218.7 247.7 219.9C247.5 220.4 246.5 220.7 246.5 220.7C246.5 220.7 247.7 218.9 248 217.9C248.3 217.1 248.2 215.3 248.2 215.3C248.2 215.3 247 215.5 246.6 215.2C246 214.9 246 214.1 245.5 213.8C245.1 213.5 244.5 214 244.1 213.7C243.2 213.3 242.8 212.2 241.9 211.8C241.5 211.5 240.8 211.7 240.5 212C239.7 213.2 239.5 214.7 238.7 216C238.5 216.3 237.9 216.2 237.8 216.6C237.5 217 237.7 218 237.7 218C237.7 218 237.3 217.1 237 216.8C236.7 216.6 236.3 216.6 236.1 216.8C235.7 217 235.4 218 235.4 218L234.4 217.2L233.3 218.2L235.5 214.8L237 216C237 216 238.7 213.5 239.2 212.2C239.4 211.7 239.6 211.1 239.2 210.8C238.2 210 235.6 209.2 235.6 209.2C235.6 209.2 235.1 212.1 234.2 213.2C232.1 216 229.7 218.5 227 220.7C225.9 221.6 224.5 222 223.2 222.2C221.1 222.6 217 222.2 217 222.2C217 222.2 222.3 222.4 224.7 221.5C226.4 220.9 227.5 219.3 228.7 218C229.3 217.3 229.4 216.2 230 215.5C230.9 214.7 232.1 214.3 233 213.5C233.5 213 234 212.3 234 211.6C234 210 233.2 208.5 233 206.9C232.8 205.1 233 201.5 233 201.5C233 201.5 233.7 201.8 233.7 202.1C234 203.8 234 207.2 234 207.2C234 207.2 234.7 207.4 235 207.2C235.4 206.9 235.7 205.8 235.7 205.8C235.7 205.8 235.6 207.7 236.3 208.2C237.4 209.1 239 208.7 240.2 209.3C244.4 211.1 248.3 213.5 252.6 215.2C253.3 215.5 255 215.2 255 215.2C255 215.2 255 212.3 255.3 210.8C255.5 209.7 256.4 208.8 256.5 207.6C256.7 203.8 257 199.8 256 196.1C254.8 191.8 250 184.3 250 184.3L248.5 184.9C248.5 184.9 249.7 186.4 250 187.3C250.1 187.7 249.8 188.5 249.8 188.5L247.7 185.3C247.7 185.3 246.8 186.2 246.2 186.5C245.8 186.6 245.4 186.6 245 186.5C244.8 186.4 244.7 186 244.8 185.8C245 185.2 246 184.3 246 184.3C246 184.3 245.2 183.9 244.8 184C244.5 184.1 244.3 184.7 244.3 184.7L244.5 183.3L243.3 183L243.5 181.8L242.3 181.9L243 180.8C243 180.8 241 178.4 239.7 177.5C239.3 177.2 238.6 177.1 238.1 177.3C237.7 177.4 237.3 178.2 237.3 178.2L237.7 176.5L235.6 176.7C235.6 176.7 235.5 176 235.2 175.8C234.9 175.6 234 175.7 234 175.7C234 175.7 234.4 175.1 234.2 174.8C234.1 174.5 233.7 174.2 233.4 174.3C232.8 174.3 231.8 175 231.8 175L232.4 173.5C232.4 173.5 231.2 173.2 230.6 173.2C229.8 173.3 228.3 174 228.3 174L228.2 172.5C228.2 172.5 224.8 173 223.1 173C222.9 173 222.5 172.7 222.5 172.7L223.2 171.9C223.2 171.9 222.9 171.5 222.7 171.5C220.2 171.2 217.7 170.8 215.1 170.8ZM84.6 170.8C98 170.7 111.3 170.6 124.6 171.2C127.7 171.4 130.8 172.2 133.7 173.3C136.8 174.4 139.9 176 142.5 178C144.4 179.5 145.7 181.7 147 183.8C147.6 184.9 147.8 186.1 148 187.4C148.2 188.6 148.2 189.9 148 191.2C147.8 192.4 147.5 193.6 147 194.7C146.5 195.7 146 196.7 145.2 197.5C143.9 198.9 142.5 200.1 141 201.2C139.9 202 137.5 202.9 137.5 202.9C137.5 202.9 138 203.6 138.3 203.7C140.8 204.7 143.5 205.2 145.9 206.3C147.3 206.8 148.5 207.7 149.7 208.5C150.6 209.1 151.5 209.7 152.2 210.5C153.6 212.1 154.9 213.7 156 215.6C156.5 216.4 156.7 217.4 156.8 218.4C156.9 220 156.9 221.7 156.7 223.4C156.6 224.6 156.3 225.7 155.7 226.7C155 228.1 154.1 229.5 153 230.7C151.8 232 150.4 233.1 149 234C146.9 235.3 144.7 236.3 142.4 237.2C140.3 238.1 138 238.7 135.7 239.2C133.5 239.7 131.3 240.2 129.1 240.2C114.3 240.6 99.4 240.6 84.5 240.5C84.3 240.5 84 240.2 84 239.9C83.8 217 83.8 194.2 84 171.4C84 171.1 84.3 170.8 84.6 170.8ZM283.6 170.8C288.9 170.4 294.1 170.6 299.4 170.8C299.7 170.8 300 171.1 300 171.3C300.2 194.2 300.2 217 300 239.9C300 240.2 299.7 240.5 299.4 240.5C294.2 240.7 288.9 240.8 283.6 240.5C283.1 240.5 282.5 240.1 282.5 239.7C282.1 217.1 282.1 194.5 282.5 171.9C282.5 171.3 283.1 170.8 283.6 170.8ZM197.4 171.8C194.9 172.7 192.5 173.8 190.3 175.3C190 175.5 190.1 176.1 190.3 176.4C191.2 178 193.5 180.9 193.5 180.9C193.5 180.9 189.5 185.1 187.8 187.3C186.8 188.5 185.3 191.2 185.3 191.2C185.3 191.2 185.1 190.2 185.3 189.8C185.8 188.6 186.4 187.5 187.3 186.5C189 184.5 191.3 183.1 192.7 180.9C193.1 180.4 192.4 179.7 192 179.3C191.6 179 190.9 178.7 190.5 179C187.1 182.6 183.6 186.3 181 190.5C179.9 192.3 179.7 196.7 179.7 196.7L178.3 196.1C178.3 196.1 178.9 197 179 197.6C179.3 200.6 179.2 206.6 179.2 206.6L178 207C178 207 177.9 208 178 208.4C178.1 208.8 178.7 209.2 178.7 209.2L179.7 207.8C179.7 207.8 179.7 210.1 180 211.2C180.3 212.2 180.9 213.1 181.2 214.1C181.4 214.5 181.2 215.2 181.2 215.2L180 215.5C180 215.5 179.8 216.2 180 216.4C180.5 217.2 181.9 218.5 181.9 218.5C181.9 218.5 182.4 217.9 182.2 217.6C182.1 217.1 181.2 216.6 181.2 216.6L181.7 215.5C181.7 215.5 186.6 223.2 189.3 226.7C189.6 227 190.2 227 190.5 226.7C190.9 226.4 191.2 225.3 191.2 225.3C191.2 225.3 189.8 224.4 189.3 223.7C187.8 221.8 186.5 219.8 185.3 217.7C185 217.3 185 216.3 185 216.3L185.7 216.3C185.7 216.3 185.7 217.5 186 218C187.6 220.4 189.2 222.9 191.3 225C191.7 225.4 193 224.7 193 224.7C193 224.7 193.5 223.7 193.2 223.3C191.9 221.6 190 220.4 188.5 218.7C187.5 217.6 186.6 216.3 186 214.9C185.3 213.2 185.3 211.3 184.7 209.6C184.3 208.3 183.3 207.2 183 205.9C182.7 204.3 182.7 202.7 183 201.1C183.4 199.1 184.1 197.2 185 195.3C185.2 195 186 194.8 186 194.8C186 194.8 186.2 195.9 186 196.4C185.5 197.7 184.3 198.5 184 199.8C183.6 202 183.7 204.3 184 206.4C184.1 206.8 184.9 206.7 185 207.1C185.6 208.6 185.5 210.4 186 211.9C186.6 213.5 187.3 215.1 188.3 216.5C189.8 218.6 191.5 220.6 193.3 222.5C193.6 222.8 194.2 223.1 194.6 223C195.1 222.9 195.5 222.6 195.7 222.2C195.9 221.9 195.9 221.5 195.7 221.3C194 219.3 191.7 217.8 190 215.7C189.2 214.6 188.6 213.3 188.3 211.9C188 210.9 188.5 209.8 188.2 208.8C188.1 208 187.1 207.5 187 206.6C186.7 204 186.7 201.3 187 198.6C187.1 198 187.8 197.7 188 197.2C188.5 195.9 188.3 194.3 189 193.1C189.8 191.8 191.3 191.3 192.2 190.2C192.6 189.7 192.6 188.9 193 188.5C194.1 187.6 195.6 187.1 196.7 186.2C198.2 185 199.3 183.4 200.8 182.3C201.7 181.6 203 181.6 204 181C204.2 180.8 204.4 180.4 204.2 180.1C204 179.4 203.5 178.7 203 178.3C202.7 178.1 202.3 178.1 202 178.3C197.7 181.5 193.3 184.9 189.3 188.5C188.4 189.3 187.5 191.5 187.5 191.5L186.8 190.9C186.8 190.9 189.9 186.9 191.8 185.3C194.9 182.5 201.7 177.7 201.7 177.7L200.5 176.9L201.2 175.5C201.2 175.5 200 174.2 199.1 174.2C197.5 174.4 196 175.3 194.6 176C194.2 176.2 194.1 176.9 193.7 177C193.2 177.1 192.3 176.7 192.3 176.7C192.3 176.7 192 176 192.3 175.8C193.6 174.8 195 173.9 196.6 173.5C197.3 173.3 198.7 174 198.7 174C198.7 174 198.8 172.6 198.5 172.1C198.3 171.7 197.7 171.6 197.4 171.8ZM213.9 174.5L219.2 174.9C219.2 174.9 216.8 175.4 215.6 175.5C214.9 175.5 213.6 175.2 213.6 175.2L213.9 174.5ZM220.6 174.5L225 174.9C225 174.9 222.4 175.1 221.1 175C220.9 175 220.6 174.5 220.6 174.5ZM188.4 177.2C186.2 179.2 183.9 181.2 182 183.5C180.4 185.5 179 187.6 178 189.8C177.7 190.5 178 192.2 178 192.2C178 192.2 178.8 192 179 191.7C180.2 189.7 180.9 187.3 182.3 185.3C183.6 183.2 185.3 181.3 187 179.5C187.6 179 188.5 178.8 189 178.2C189.2 178 189 177.3 189 177.3C189 177.3 188.5 177.1 188.4 177.2ZM196.9 178.2L197 179L194.3 180.2C194.3 180.2 194.3 179.5 194.5 179.3C195.2 178.8 196.9 178.2 196.9 178.2ZM238.9 178.5L239.5 178.9L239.1 180L240.7 179.6L239.7 181L237.5 179.9L238.9 178.5ZM208.4 179.5C208.4 179.5 209.1 179.3 209.5 179.5C210 179.9 210.7 181 210.7 181C210.7 181 209.7 181.1 209.3 181C208.9 180.9 208.5 180.6 208.3 180.2C208.1 180 208.4 179.5 208.4 179.5ZM216.9 179.5L221 180.2C221 180.2 219.1 181.2 218.1 181C217.4 180.9 216.9 179.5 216.9 179.5ZM223.9 180.5C224.4 180.3 225.7 180.8 225.7 180.8L225.7 181.5C225.7 181.5 222.9 182.7 221.4 183C220.9 183.1 220 182.7 220 182.7C220 182.7 222.5 181 223.9 180.5ZM240.1 181.2C240.1 181.2 240.6 181.1 240.7 181.3C242.3 183.3 243.3 185.7 245 187.5C245.4 187.9 246.3 186.9 246.7 187.3C247.8 188.3 248.5 189.7 248.7 191.1C248.9 192 247.7 193.7 247.7 193.7C247.7 193.7 247 193.1 247 192.6C247 192 247.7 191 247.7 191C247.7 191 246.8 191 246.5 190.7C246.1 190.3 246.3 189.5 246 189C244.8 187.5 243.2 186.5 242 185C241.2 183.8 240.1 181.2 240.1 181.2ZM228.4 181.5C229.1 181.5 229.9 181.8 230.5 182.3C231.1 182.8 231.4 183.7 232 184.2C233 184.9 234.3 185 235.2 185.8C237 187.4 238.3 189.4 239.7 191.3C240.1 191.8 240.7 192.4 240.8 193.1C240.9 193.9 240.3 195.4 240.3 195.4L241.8 196.1L240.2 199.7C240.2 199.7 239.6 199.7 239.5 199.4C239.2 198.8 239.5 198 239.2 197.3C239 196.8 238.5 196.4 238.2 195.9C238.1 195.6 238.1 195.1 238.3 194.8C238.6 194.1 239.7 193 239.7 193L238.5 193L238.2 194.2L237.3 194L238.2 191.6L237.3 191.3L236.7 192.5L236.3 192.2L237.2 190.4C237.2 190.4 236.3 190.1 236 189.7C235.8 189.5 236 188.8 236 188.8L234.3 189.5C234.3 189.5 233.9 188.9 234 188.6C234.1 188.2 234.7 187.8 234.7 187.8C234.7 187.8 232.8 185.6 231.7 184.8C231.1 184.3 230.1 184.3 229.5 183.7C229.3 183.4 229.5 182.5 229.5 182.5L226.5 182.7L226.5 182C226.5 182 227.7 181.5 228.4 181.5ZM101.6 182C101.3 182 101 182.5 101 182.9C100.8 188.1 100.7 193.4 101 198.6C101 199 101.4 199.5 101.8 199.5C107 199.7 112.2 199.6 117.4 199.2C119.2 199.1 121 198.8 122.7 198.2C124.1 197.8 125.6 197.2 126.7 196.2C128 195.1 129.3 193.8 130 192.2C130.5 191 130.2 189.6 130 188.3C129.9 187.7 129.5 187 129 186.5C127.5 185.3 126 183.9 124.2 183.3C121.5 182.3 118.7 182.2 115.9 182C111.1 181.7 106.4 181.7 101.6 182ZM237.9 183.5C237.9 183.5 238.5 183.3 238.7 183.5C239.7 184.3 240.5 185.2 241.2 186.3C242.3 187.9 244 191.5 244 191.5C244 191.5 243.4 191.6 243.3 191.5C241.3 188.9 237.9 183.5 237.9 183.5ZM206.4 184.2C204.6 184.7 203 185.9 201.5 187C200.8 187.6 199.8 189.2 199.8 189.2C199.8 189.2 200.8 189.5 201.2 189.2C202 188.8 202.4 187.6 203.3 187.3C203.9 187 204.6 187.7 205.2 187.5C205.6 187.4 205.7 186.7 206.1 186.5C206.6 186.3 207.2 186.5 207.7 186.2C207.9 186.1 208 185.5 208 185.5C208 185.5 207.1 184.1 206.4 184.2ZM210.6 186.2L210.6 187.2L218.5 187.1C218.5 187.1 218.2 186.3 217.9 186.2C215.5 186 210.6 186.2 210.6 186.2ZM6.1 187.5C7.3 187.4 8.6 187.9 9.7 188.5C10.3 188.9 11 189.6 11 190.4C11.4 204.4 10.1 218.6 11 232.6C11.1 233.7 12.9 233.6 13.7 234.3C14.2 234.8 14.7 235.4 14.8 236.1C14.8 236.9 14.4 237.6 14 238.2C13.6 238.7 13 239.1 12.4 239.2C11.1 239.5 9.8 239.6 8.6 239.2C6.9 238.8 5.4 237.9 4 237C3.4 236.5 2.8 235.9 2.8 235.1C2.3 220.1 2.6 205.1 2.8 190.1C2.8 189.7 3 189.3 3.3 189C4.1 188.4 5 187.6 6.1 187.5ZM208.4 188.2C206.2 188.7 204.2 190 202.3 191.3C201.2 192 200.3 193 199.5 194C198.7 195.1 197.5 197.4 197.5 197.4C197.5 197.4 198.4 198.8 199.1 199C199.6 199.2 200.4 198.9 200.7 198.5C201.7 197.2 202.1 195.6 203 194.3C203.6 193.5 204.2 192.8 205 192.3C206.4 191.4 207.8 190.5 209.3 190.3C212.2 189.8 215.1 189.8 217.9 190.3C219.7 190.6 221.1 192.3 222.9 192.5C223.7 192.6 224.4 191.8 225 191.2C225.2 191 225.1 190.5 225 190.3C224.7 189.8 224.2 189.4 223.7 189.3C221.5 188.7 219.2 188.4 216.9 188.2C214.1 188.1 211.2 187.7 208.4 188.2ZM250.4 189C250.4 189 251.6 191 252 192.1C252.1 192.5 251.9 193.5 251.9 193.5C251.9 193.5 250.7 191.4 250.3 190.2C250.1 189.8 250.4 189 250.4 189ZM229.4 189.5C229.4 189.5 231.7 191.4 232.7 192.5C233 192.8 233 193.7 233 193.7L229.4 189.5ZM209.9 191.2C209.4 191.4 209.2 192.1 208.7 192.2C208.2 192.4 207.5 192 207 192.3C205.9 193 204.3 195.2 204.3 195.2C204.3 195.2 207.7 192.9 209.6 192.3C210.8 191.9 212.2 192.4 213.5 192.2C213.7 192.2 213.7 191.6 213.7 191.6C213.7 191.6 213.4 191.3 213.2 191.3C212.1 191.2 211 191 209.9 191.2ZM215.6 191.2C215.2 191.3 214.5 191.8 214.5 191.8C214.5 191.8 214.8 192.2 215.1 192.2C216 192.3 217.7 191.9 217.7 191.9C217.7 191.9 217.4 191.3 217.2 191.3C216.7 191.1 216.1 191.1 215.6 191.2ZM199.4 191.5C199.4 191.5 197 193.6 196 194.8C195.5 195.5 195 196.2 194.8 197.1C194.6 197.5 195 198.2 195 198.2C195 198.2 196 198.1 196.2 197.7C196.5 197.4 196.1 196.9 196.3 196.5C197.3 194.9 199.7 191.9 199.7 191.9L199.4 191.5ZM228.1 191.5C228.1 191.5 229.9 192.8 230.7 193.5C231.1 193.9 231.5 194.3 231.7 194.8C231.9 195.2 231.7 196 231.7 196L228.1 191.5ZM184.6 191.8C184.6 191.8 184.9 192.6 184.7 192.9C184 194.8 182.1 198.2 182.1 198.2C182.1 198.2 181.8 197.1 182 196.6C182.7 194.9 184.6 191.8 184.6 191.8ZM195.4 192.2C194.2 193.5 193.2 194.9 192.3 196.3C191.7 197.2 191.2 198.1 191 199.1C190.9 199.5 191.3 200.2 191.3 200.2C191.3 200.2 192.9 200.3 193.2 199.7C193.9 198.6 193.5 197 194 195.8C194.4 194.8 195.5 194.1 196 193.2C196.1 192.9 196 192.3 196 192.3C196 192.3 195.5 192.1 195.4 192.2ZM212.1 194C210.8 194.1 209.4 194.6 208.3 195.3C207 196 205.9 197.1 205 198.3C204.4 199.1 204 200.1 203.8 201.1C203.6 201.6 204 202.7 204 202.7C204 202.7 204.9 202.7 205 202.4C205.3 201.6 204.8 200.6 205.3 199.8C206.1 198.4 207.3 197.3 208.6 196.3C209.1 195.8 209.7 195.6 210.4 195.5C213.1 195.2 218.7 195.2 218.7 195.2L218.4 194.3C218.4 194.3 214.2 193.8 212.1 194ZM246.1 196C246.1 196 246.9 197.2 247 197.9C247.1 198.7 246.6 200.5 246.6 200.5L246.1 196ZM221.9 197C221.9 197 221.8 198 222 198.4C222.5 199.3 223.6 199.7 224 200.6C224.3 201.2 224 202.7 224 202.7L224.9 202.7C224.9 202.7 225.3 200.9 225 200.1C224.5 198.9 223.6 197.9 222.7 197C222.5 196.8 221.9 197 221.9 197ZM212.1 197.2L211.8 198.2L214.5 197.9C214.5 197.9 214.4 197.3 214.2 197.3C213.5 197.1 212.1 197.2 212.1 197.2ZM242.1 198L242.8 198.1C242.8 198.1 242 200.4 242 201.6C242 203.2 242.8 204.8 242.8 206.4C242.7 207.2 242.4 208 242 208.7C241.7 209.1 240.9 209.2 240.9 209.2C240.9 209.2 240.5 208.7 240.5 208.4C240.6 207.6 241.2 206.9 241.2 206.1C241.2 205 240.5 204 240.5 202.9C240.5 201.8 241 199.8 241 199.8C241 199.8 241.6 199.9 241.7 199.7C242 199.2 242.1 198 242.1 198ZM217.1 199.5C215.9 199.5 214.7 199.5 213.6 200C212.6 200.4 211.7 201.2 211 202C210.7 202.6 210.6 203.3 210.8 203.9C211 204.9 212.3 206.5 212.3 206.5L214.7 205.9C214.7 205.9 212.8 205.4 212.3 204.7C211.9 204.2 212 203.4 212.3 202.8C212.5 202.2 213 201.7 213.6 201.5C214.2 201.3 214.9 201.2 215.4 201.5C216 201.8 216.5 202.4 216.7 203.1C216.9 203.5 216.9 204 216.7 204.4C216.5 204.9 215.5 205.6 215.5 205.6C215.5 205.6 215.6 206.1 215.8 206.2C216.2 206.4 216.8 206.4 217.2 206.2C217.6 206.1 218.1 205.7 218.2 205.2C218.5 204.4 218.6 203.5 218.5 202.6C218.5 202.1 218.3 201.6 218 201.3C217.7 201 217 200.9 217 200.9L218 199.8C218 199.8 217.4 199.5 217.1 199.5ZM208.9 199.8C208.9 199.8 207.3 200.8 207 201.6C206.6 202.6 206.4 203.9 206.8 204.9C207.2 206.2 208.3 207.3 209.3 208.2C209.6 208.5 210.4 208.2 210.4 208.2C210.4 208.2 208.3 206.1 208 204.7C207.7 203 208.9 199.8 208.9 199.8ZM221.4 201L221 205.1L221.9 205.5C221.9 205.5 222.2 202.7 222 201.4C222 201.1 221.4 201 221.4 201ZM188.6 201.2L188.5 202.7L190.6 202.2C190.6 202.2 191 202.6 191 202.8C191.1 204.1 190.7 205.4 191 206.7C191.5 208.8 192.1 210.9 193.3 212.7C194.8 215.1 196.8 217.2 198.8 219.2C199.1 219.5 199.6 219.5 200 219.2C200.5 218.8 201 217.6 201 217.6C201 217.6 198.1 215.4 197 214C195.8 212.5 194.8 210.8 194.3 208.9C193.6 206.8 193.5 202.3 193.5 202.3L188.6 201.2ZM175.6 201.5C175.6 201.5 174.9 202.5 174.8 203.1C174.6 204 174.5 205 174.8 205.9C174.9 206.5 175.6 206.9 175.7 207.6C176.3 210 176 212.6 176.8 214.9C177.3 216.7 178.9 217.9 179.7 219.6C180.1 220.2 179.6 221.1 180 221.7C180.7 222.7 182 223.1 182.7 224C184 225.5 184.7 227.3 186 228.7C186.3 229 187.2 229 187.2 229C187.2 229 187.6 227.8 187.2 227.3C185.8 225.2 183.5 223.7 182 221.7C180.5 219.6 178.8 217.4 178 214.9C176.6 210.6 175.6 201.5 175.6 201.5ZM44.9 203C47.7 202.7 50.6 202.8 53.4 203.3C55.1 203.5 56.6 204.3 58 205.3C59.5 206.4 60.8 207.8 62 209.3C62.4 209.8 62.6 210.4 62.7 211.1C63 212.2 63.2 213.5 63 214.6C62.9 215.5 62.5 216.3 62 216.9C61.4 217.8 60.6 218.6 59.7 219.2C57.9 220.4 56 221.5 53.9 222.2C50.4 223.5 46.6 224.5 42.9 225.2C39.8 225.9 36.6 225.7 33.6 226.5C33.1 226.6 32.8 227.5 33 228C33.5 229 34.6 229.6 35.5 230.2C37 231.1 38.5 232 40.1 232.2C42.9 232.6 45.9 232.6 48.7 232C52.6 231.1 56 228.6 59.9 227.8C61.1 227.5 62.5 228 63.7 228.5C64.3 228.8 64.7 229.5 65 230.1C65.2 230.5 65.3 231 65 231.4C64.3 232.5 63.3 233.4 62.2 234C59.3 235.4 56.3 236.4 53.2 237.2C50.6 237.9 48 238.3 45.4 238.5C43 238.7 40.6 238.7 38.3 238.2C35.5 237.6 32.7 236.7 30.3 235.2C28.2 233.9 26.4 232 25 230C23.8 228.2 23.1 226 22.8 223.9C22.4 221.7 22.6 219.3 23 217.1C23.3 215.5 24.1 213.9 25 212.5C26.2 210.9 27.6 209.4 29.3 208.3C31.1 207 33.2 206 35.3 205.3C38.4 204.2 41.6 203.4 44.9 203ZM225.1 203.5C225.1 203.5 224.2 203.9 224 204.3C223.8 205 224.2 205.7 224 206.4C223.8 207.2 223.5 208 223 208.7C222.3 209.6 221.4 210.4 220.5 211C219.7 211.5 218.8 211.9 217.9 212C215.7 212.2 213.5 212.2 211.4 212C210.7 211.9 210.1 211.7 209.6 211.2C208 209.9 206.4 208.5 205.3 206.7C204.7 205.9 204.7 203.8 204.7 203.8L204 203.8C204 203.8 203.6 205 203.8 205.6C204 206.6 204.4 207.6 205 208.5C206 209.8 206.9 211.3 208.3 212.2C209.5 213 211 213.3 212.4 213.5C214.1 213.7 215.9 213.9 217.6 213.5C219.2 213.1 220.7 212.2 222 211.2C223.1 210.3 224.2 209.2 225 208C225.6 207.1 226 206 226 204.9C226 204.3 225.1 203.5 225.1 203.5ZM196.4 203.5C196.4 203.5 197 203.8 197 204.1C197.1 205 196.9 207 196.9 207L196.4 203.5ZM214.6 206.8C214.3 206.8 213.8 207.3 213.8 207.3C213.8 207.3 213.8 207.9 214.1 208C215 208.2 217 207.9 217 207.9C217 207.9 216.9 207.4 216.7 207.3C216.1 206.9 215.3 206.7 214.6 206.8ZM197.4 207.5L198.9 211.7C198.9 211.7 197.6 210.3 197.3 209.4C197 208.8 197.4 207.5 197.4 207.5ZM190.4 208L190 210.1L190.6 210.5C190.6 210.5 191.1 209.2 191 208.6C191 208.3 190.4 208 190.4 208ZM210.6 208.2C210.6 208.2 210.8 209 211 209.2C211.7 209.8 212.5 210.4 213.3 210.5C214.6 210.7 215.9 210.5 217.2 210.2C217.4 210.2 217.7 209.7 217.7 209.7C217.7 209.7 214.8 209.5 213.3 209.2C212.4 209.1 210.6 208.2 210.6 208.2ZM45.9 209.2C44 209.5 42.1 209.9 40.3 210.5C38.7 211 37 211.6 35.5 212.5C34.2 213.4 33.2 214.6 32.3 215.8C31.8 216.4 31.4 217.1 31.3 217.8C31 218.8 31 220.7 31 220.7C31 220.7 40 219.3 44.4 218.2C47.4 217.5 50.4 216.5 53.2 215.2C53.9 214.9 54.7 214.4 54.8 213.6C54.8 212.5 54.2 211.3 53.5 210.5C52.8 209.8 51.7 209.4 50.7 209.3C49.1 209 47.5 209.1 45.9 209.2ZM228.6 209L229 210L226 212.2L228.6 209ZM232.4 210C232.4 210 232.9 211 232.7 211.5C232.1 212.8 231 213.9 230 215C229.1 215.8 227 217.2 227 217.2C227 217.2 226.9 216.7 227 216.5C227.9 215.6 229.2 215.2 230 214.2C231 213 232.4 210 232.4 210ZM117.4 210.5C112 210.4 101.3 211 101.3 211C101.3 211 100.9 222.8 101 228.6C101 228.9 101.3 229.2 101.5 229.2C109.2 229.4 116.8 229.5 124.4 229.2C126.5 229.2 128.6 228.7 130.7 228.2C131.8 228 132.8 227.5 133.7 227C134.9 226.3 136 225.4 137 224.5C137.7 223.7 138.4 222.9 138.7 221.9C139.1 221 139.1 220 139 219.1C138.9 218.3 138.5 217.5 138 216.8C137.3 215.8 136.5 214.8 135.5 214.3C133.3 213.1 130.9 212 128.4 211.5C124.8 210.7 121.1 210.6 117.4 210.5ZM179.4 212.2L179 214.2L179.9 214.5C179.9 214.5 180.4 213.6 180.2 213.1C180.2 212.7 179.4 212.2 179.4 212.2ZM199.4 212L203.5 216C203.5 216 202.1 215.6 201.5 215.2C200.6 214.5 199.9 213.6 199.3 212.7C199.1 212.5 199.4 212 199.4 212ZM192.1 213.5C192.1 213.5 192.5 215.3 193 216C194 217.2 196.7 219.2 196.7 219.2C196.7 219.2 197.1 218.8 197 218.6C196.7 217.9 196.2 217.3 195.7 216.8C194.6 215.6 192.1 213.5 192.1 213.5ZM205.1 213.5L208.7 216C208.7 216 208.1 216.3 207.8 216.2C207.2 216.1 206.5 215.7 206 215.2C205.6 214.8 205.1 213.5 205.1 213.5ZM243.4 214.5L244 215.2L242.3 218C242.3 218 241.9 217.6 242 217.3C242.3 216.3 243.4 214.5 243.4 214.5ZM215.6 219.2C217.4 219.3 221 219.6 221 219.6C221 219.6 217.1 220 215.1 220C214.9 220 214.8 219.5 214.8 219.5C214.8 219.5 215.3 219.2 215.6 219.2ZM240.6 220.2C240.6 220.2 241.1 220.7 241 220.9C240.7 221.6 240.2 222 239.7 222.5C238.2 223.8 234.8 226.2 234.8 226.2L240.6 220.2ZM232.4 220.5L234 221C234 221 234 221.8 233.7 222C232.6 222.8 231.4 223.5 230.2 224C228.8 224.6 227.2 224.6 225.8 225.3C225 225.6 224.6 226.7 223.7 227C223 227.2 221.6 226.5 221.6 226.5C221.6 226.5 221.2 227.8 220.7 228C219.8 228.3 218.8 228.2 217.9 228C216.8 227.8 215 226.7 215 226.7C215 226.7 217.2 226.8 218.2 226.5C218.6 226.4 218.7 225.7 219.1 225.5C220.7 224.7 222.5 224 224.3 223.5C224.9 223.3 225.6 223.7 226.2 223.5C226.8 223.3 227.5 222.9 228 222.5C228.2 222.2 228.3 221.5 228.3 221.5C228.3 221.5 229.7 222.2 230.4 222.2C231 222.2 231.5 221.9 232 221.5C232.2 221.2 232.4 220.5 232.4 220.5ZM199.6 221.5C199.6 221.5 202.4 222.1 203.7 222.8C204 222.9 204.1 223.7 204.1 223.7L205.9 223.5L205.3 225C205.3 225 206.4 224.8 206.9 225C207.6 225.3 207.9 226.2 208.6 226.2C210.1 226.4 212.9 225.5 212.9 225.5L213.5 226.5L211 226.9C211 226.9 212.2 227 212.7 227.3C212.9 227.4 213 227.9 213 227.9C213 227.9 211.7 228.4 211.1 228.2C208.5 227.7 206 227 203.6 226C203.2 225.8 203.3 225.2 203 225C201.7 224.2 199 223 199 223L199.6 221.5ZM242.6 222C242.6 222 242.9 222.5 242.7 222.7C242.2 223.6 241.5 224.3 240.7 225C238.8 226.5 234.5 229.2 234.5 229.2C234.5 229.2 234.4 228.7 234.5 228.5C236.2 227.3 238.1 226.5 239.7 225.2C240.8 224.3 242.6 222 242.6 222ZM244.6 224C244.6 224 245.8 225.3 245.5 225.9C244.6 227.7 242.9 228.9 241.5 230.2C241 230.7 240.5 231.1 239.9 231.2C239.7 231.3 239.2 230.9 239.2 230.9C239.2 230.9 241.7 229 242.7 228C242.9 227.8 242.7 227.3 242.7 227.3C242.7 227.3 242.1 227.1 241.8 227.3C240 228.4 238.3 230 236.5 231.2C236.2 231.4 235.5 231.2 235.5 231.2C235.5 231.2 236.8 229.8 237.5 229.3C239.3 228.1 241.3 227.5 243 226.2C243.7 225.7 244.6 224 244.6 224ZM195.6 225.5C195.6 225.5 196.2 225.4 196.5 225.5C197.8 226.5 200.2 229 200.2 229C200.2 229 199.5 229.2 199.3 229C197.9 228 195.6 225.5 195.6 225.5ZM194.9 227.5L201.2 232C201.2 232 200.2 232.3 199.8 232C198 230.7 194.9 227.5 194.9 227.5ZM203.6 230.2L207.5 230.9L203.6 231L203.6 230.2ZM193.9 230.5C194.2 230.4 195 230.9 195 230.9C195 230.9 194.1 232 193.5 232.2C193 232.3 192.3 231.7 192.3 231.7C192.3 231.7 193.2 230.7 193.9 230.5ZM210.6 231.2C213.6 231.2 219.5 231.6 219.5 231.6C219.5 231.6 214.1 232.2 211.4 232.2C210.9 232.3 210 231.7 210 231.7C210 231.7 210.4 231.3 210.6 231.2ZM234.6 231.2L236.5 232.7C236.5 232.7 235.7 233.1 235.3 233C234.8 232.9 233.8 232.2 233.8 232.2L234.6 231.2ZM195.9 231.5C196.3 231.5 197 232 197 232L194.3 233C194.3 233 194.1 232.4 194.3 232.3C194.7 231.9 195.3 231.6 195.9 231.5ZM202.9 234.5C203.2 234.4 204 234.5 204 234.5C204 234.5 204.1 235 204 235.2C203.7 235.6 203.3 235.9 202.9 236C202.4 236.1 201.3 235.7 201.3 235.7C201.3 235.7 202.3 234.8 202.9 234.5ZM205.6 235.5C206.2 235.5 207.2 236 207.2 236L203.8 237C203.8 237 203.6 236.4 203.8 236.3C204.3 235.9 205 235.6 205.6 235.5ZM70.6 241.8C71.7 241.6 72.9 241.9 74 242.3C74.4 242.4 74.8 242.9 75 243.3C75.3 244.1 75.7 245 75.2 245.7C72.6 249.5 69.5 252.8 66.2 256C65.5 256.7 64.4 256.9 63.4 257C62.1 257.1 60.7 256.9 59.5 256.5C58.9 256.2 58.2 255.6 58 254.9C57.8 254.3 57.8 253.4 58.3 252.8C60.8 249.4 63.4 246.1 66.5 243.3C67.6 242.3 69.2 241.9 70.6 241.8ZM41.6 246.8C42.6 246.7 43.8 246.8 44.7 247.3C45.6 247.8 46.7 248.6 46.7 249.6C47.4 260.4 46.1 271.3 46.8 282.1C46.8 283.3 48.5 283.8 48.7 284.8C48.9 285.5 48.6 286.4 48 286.7C46.7 287.5 45.1 287.9 43.6 287.8C41.6 287.5 40.1 285.6 38.1 285.5C36.8 285.4 35.7 286.8 34.4 287.2C33 287.7 31.5 288.1 29.9 288.2C25.7 288.6 21.4 288.8 17.1 288.5C14.6 288.3 12.2 287.8 9.8 287C8.2 286.4 6.8 285.5 5.5 284.5C4.6 283.7 3.6 282.8 3 281.7C2.2 280.1 1.6 278.4 1.5 276.6C1.4 275.1 1.7 273.5 2.3 272.1C2.9 270.4 3.8 268.8 5 267.5C6.4 266.1 8 265.1 9.8 264.3C12.8 262.9 15.9 262 19.1 261.3C21.4 260.7 23.8 260.5 26.1 260.5C29.7 260.4 36.9 261 36.9 261C36.9 261 36.5 253.2 37 249.3C37.1 248.5 37.9 247.9 38.6 247.5C39.5 247 40.6 246.8 41.6 246.8ZM240.6 247C241.5 247 242.4 246.9 243.2 247.3C244.2 247.8 245.6 248.4 245.7 249.6C246.5 254.3 245.8 264 245.8 264C245.8 264 251.7 261.8 254.8 261.3C257.8 260.7 260.9 260.3 263.9 260.5C266.6 260.7 269.3 261.4 271.9 262.3C273.4 262.7 274.8 263.3 276 264.3C277.2 265.2 278.3 266.4 279 267.8C279.8 269.5 280.2 271.5 280.2 273.4C280.2 275.4 279.7 277.5 279 279.4C278.6 280.4 277.7 281.2 277 282C276.1 282.8 275.2 283.6 274.2 284.2C272.9 285 271.5 285.8 269.9 286.2C267 287.1 263.9 287.7 260.9 288C257.6 288.4 254.2 288.5 250.9 288.2C248.2 288.1 245.6 287 242.9 286.8C242.4 286.7 242.1 287.2 241.6 287.2C239.9 287.3 238.2 287.4 236.5 287C235.8 286.8 235 286.1 235 285.4C234.9 284.3 236.2 283.5 236.2 282.4C236.6 271.5 235.6 260.5 236.2 249.6C236.3 248.6 237.5 248 238.3 247.5C239 247.1 239.8 247 240.6 247ZM356.6 258.2C359.6 258 362.7 258.1 365.7 258.3C367.8 258.4 369.9 258.7 371.9 259.3C373.6 259.7 375.4 260.1 376.7 261.3C377.3 261.8 377.1 263 376.7 263.7C376.3 264.5 375.3 265 374.4 265.2C373.3 265.6 372 265.4 370.8 265.2C368.5 264.9 366.3 263.8 363.9 263.5C362.1 263.3 360.4 263.3 358.6 263.5C357.8 263.6 357 263.8 356.3 264.3C355.4 264.9 354.7 265.7 354.2 266.6C354.1 266.9 354.3 267.4 354.5 267.7C355.2 268.4 355.9 269 356.8 269.2C360.9 270.2 365.1 270.4 369.2 271.3C371.2 271.7 373.3 272.4 375.2 273.3C376.1 273.7 377 274.3 377.7 275C378.5 275.9 379.3 276.9 379.7 278.1C380.1 279 380.1 280.1 380 281.2C379.9 281.9 379.5 282.6 379 283.2C378.1 284.3 377.2 285.3 376 286C373.3 287.4 370.6 288.6 367.7 289.2C365.2 289.8 362.6 289.6 360.1 289.2C356 288.6 351.9 287.7 348.1 286.2C346.1 285.5 344.2 284.3 342.8 282.7C342.2 282.1 342.3 281 342.8 280.3C343.2 279.5 344.2 279.1 345.1 279C346.6 278.8 348.2 278.8 349.7 279.3C351.6 279.9 353.1 281.6 355.1 282.2C357.2 283 359.4 283.3 361.6 283.5C363.4 283.7 365.2 283.7 366.9 283.2C368.1 282.9 369.2 282.1 370 281.2C370.4 280.7 370.5 279.9 370.2 279.3C369.8 278.4 369.1 277.5 368.2 277.3C363.3 275.8 358.1 275.5 353.1 274.2C351.3 273.8 349.6 273.1 348.1 272.2C347 271.7 345.9 271 345.3 269.9C344.7 269 344.3 267.7 344.5 266.6C344.7 265.2 345.3 263.8 346.3 262.8C347.7 261.3 349.6 260.1 351.6 259.3C353.1 258.6 354.9 258.4 356.6 258.2ZM177.4 259C180.5 259 183.7 259.3 186.7 260.3C188.6 260.9 190.3 262.2 191.7 263.6C192.4 264.2 192.7 265.2 193 266.1C193.3 267 193.2 267.9 193.2 268.9C193.3 274.5 193.4 280.1 193 285.6C193 286.3 192.4 286.9 192 287.5C191.6 287.9 191 288.4 190.4 288.5C189 288.7 187.5 288.8 186.1 288.5C185.3 288.3 184.4 287.7 184 286.9C183.4 285.8 183.3 284.4 183.2 283.1C183 278 183.6 272.8 183.2 267.6C183.2 266.7 182.6 265.9 182 265.3C181.5 264.8 180.8 264.5 180.1 264.5C177.3 264.5 174.4 264.8 171.6 265.3C170.5 265.4 169.3 265.8 168.3 266.3C167.1 266.8 166 267.4 165 268.3C163.9 269.3 162.3 270.3 162 271.8C161.2 276.4 162.7 281.1 162 285.7C161.8 286.9 160.5 287.8 159.4 288.2C158.1 288.7 156.5 288.5 155.1 288.2C154.5 288.1 154 287.7 153.5 287.2C153.1 286.7 152.6 286.1 152.5 285.4C152.1 281.5 152.3 277.6 152.2 273.6C152.2 270 152 266.3 152.2 262.6C152.3 262.1 152.7 261.7 153 261.3C153.5 260.8 154.1 260.2 154.8 260C155.7 259.7 156.7 259.7 157.6 259.8C158.4 259.8 159.3 259.9 159.9 260.3C160.8 260.7 161.2 261.7 162 262.2C162.3 262.4 162.6 262.3 162.9 262.2C164.4 261.7 165.7 260.6 167.3 260.3C170.6 259.5 174 259 177.4 259ZM316.6 259.5C319.5 259.3 322.5 259.5 325.4 260C326.6 260.2 328.5 260.6 328.7 261.8C329.8 266.9 328.8 272.2 329.3 277.4C329.3 278.5 329.7 279.6 330.3 280.5C331.5 282.3 333.5 283.5 334.7 285.3C335 285.7 334.9 286.3 334.7 286.7C334.5 287.2 334.2 287.9 333.7 288C331.6 288.4 329.4 288.7 327.3 288.2C326.1 288 325.5 286.6 324.4 286C324.1 285.8 323.7 285.9 323.4 286C321.7 286.6 320.1 287.5 318.4 288C317 288.4 315.6 288.7 314.1 288.8C309.3 288.8 304.4 288.9 299.6 288.2C297.6 288 295.6 287 293.8 286C292.4 285.2 291.1 284 290 282.7C289.5 282.1 289.1 281.4 289 280.6C288.8 278.7 288.6 276.7 289 274.8C289.3 273.4 290.1 272.2 291 271C292.3 269.4 293.9 267.8 295.5 266.5C297.2 265.2 299.1 264.2 301.1 263.3C302.7 262.4 304.5 261.7 306.3 261.3C309.7 260.4 313.1 259.7 316.6 259.5ZM122.1 259.8C125.4 259.8 128.7 259.7 131.9 260.3C133.8 260.6 135.6 261.4 137.2 262.5C138.7 263.6 140.2 265.1 141 266.8C141.5 267.8 141.3 269.2 140.7 270.2C140 271.5 138.7 272.5 137.5 273.2C135.9 274.2 134.2 274.8 132.4 275.2C128.2 276.4 124 277.3 119.7 278C115.8 278.6 111.9 278.6 108.1 279.3C107.8 279.3 107.8 280 107.8 280C107.8 280 109.7 281.4 110.8 282C111.9 282.5 113.1 283.1 114.3 283.2C117.2 283.6 120.1 283.9 122.9 283.5C128.2 282.7 133.3 280.7 138.6 279.8C139.6 279.6 140.6 279.9 141.4 280.3C142 280.5 142.5 280.8 142.7 281.3C143 281.8 143.1 282.5 143 283.1C143 283.5 142.8 283.8 142.5 284C140.6 284.9 138.7 285.7 136.7 286.2C133.8 287.1 130.9 287.9 127.9 288.2C123.3 288.7 118.7 288.7 114.1 288.5C111.7 288.4 109.4 287.9 107.1 287.2C105.5 286.8 104.1 286.1 102.8 285.2C101.4 284.4 100.1 283.4 99 282.2C98.2 281.3 97.5 280.1 97 278.9C96.4 277.5 96 275.9 96 274.4C96 273 96.4 271.6 97 270.3C97.6 269.1 98.3 268 99.3 267C100.3 266 101.5 265.2 102.8 264.5C104.6 263.6 106.4 262.9 108.3 262.3C111 261.4 113.6 260.7 116.3 260.3C118.2 259.9 120.2 259.8 122.1 259.8ZM317.1 265C314.5 265.2 311.8 265.6 309.3 266.5C306.8 267.5 304.3 268.7 302.3 270.5C300.7 271.9 299.7 273.9 298.8 275.8C298.3 276.8 298.2 278 298.2 279.1C298.3 279.7 298.6 280.3 299 280.7C299.6 281.3 300.3 281.9 301.1 282.2C302.1 282.7 303.2 283.1 304.3 283.2C306.5 283.5 308.7 283.5 310.9 283.5C311.8 283.5 312.8 283.5 313.7 283.2C315.8 282.5 318 281.6 320 280.5C320.3 280.3 320.3 279.7 320.2 279.3C320.1 278.2 319.3 277.1 319.2 275.9C319 272.5 319.2 265.6 319.2 265.6C319.2 265.6 317.9 264.9 317.1 265ZM120.6 265.2C118.8 265.4 116.9 265.7 115.1 266.3C113.2 266.8 111.3 267.6 109.6 268.5C108.7 269 107.8 269.5 107.3 270.3C106.5 271.4 105.8 273.9 105.8 273.9C105.8 273.9 106.8 274.3 107.4 274.2C111.7 273.7 116 273.1 120.2 272.2C123.8 271.5 127.5 270.6 130.9 269.2C131.4 269.1 131.5 268.4 131.5 267.9C131.5 267.3 131.2 266.6 130.7 266.3C129.9 265.7 128.9 265.3 127.9 265.2C125.5 265 123 265.1 120.6 265.2ZM26.4 266C24.8 266 23.2 266.2 21.6 266.5C19.8 266.9 17.9 267.4 16.3 268.3C14.7 269.2 13.2 270.4 12 271.8C11.4 272.5 11.1 273.4 11 274.4C10.9 275.5 10.9 276.6 11.3 277.7C11.7 279 12.4 280.3 13.5 281.2C14.8 282.3 16.4 283 18.1 283.2C20.4 283.7 22.8 283.4 25.1 283.2C27 283.1 28.9 282.9 30.7 282.2C33 281.4 35.2 280.2 37.2 278.7C37.7 278.4 37.8 277.7 37.8 277.1C37.8 273.9 38 270.6 37.2 267.5C37 266.7 35.8 266.4 34.9 266.2C32.1 265.9 29.2 265.9 26.4 266ZM259.6 266.2C257.2 266.6 254.8 267.2 252.6 268.3C250.1 269.4 247.1 270.4 245.8 272.8C244.5 275.2 245.5 278.2 245.8 280.9C245.8 281.3 246.2 281.6 246.5 281.7C248.7 282.3 250.9 282.7 253.1 283C254.4 283.2 255.6 283.1 256.9 283C258.8 282.8 260.8 282.6 262.7 282C264.8 281.3 266.9 280.2 268.7 279C269.4 278.5 269.7 277.7 270 276.9C270.4 275.9 270.8 274.8 270.8 273.6C270.8 272.4 270.4 271.2 270 270.1C269.8 269.5 269.5 268.9 269 268.5C267.7 267.6 266.4 266.6 264.9 266.3C263.2 265.8 261.4 266 259.6 266.2Z"/></svg>