<?xml version="1.0" encoding="UTF-8"?>
<svg xmlns="http://www.w3.org/2000/svg" xmlns:xlink="http://www.w3.org/1999/xlink" version="1.1" viewBox="0 0 200 200" style="background: transparent;"><defs><linearGradient id="gradient" gradientTransform="rotate(70 0.5 0.5)"><stop offset="0%" stop-color="#ffffff"/><stop offset="100%" stop-color="#ffffff"/></linearGradient></defs><g><g fill="#01030a" transform="matrix(5.246299810246679,0,0,5.246299810246679,13.379915767331283,137.01330849486465)" stroke="#ffffff" stroke-width="0"><path d="M9.89-8.57L9.89-6.03L4.50-6.03L4.50-2.64L10.87-2.64L10.87 0L1.07 0L1.07-14.22L10.89-14.22L10.89-11.57L4.50-11.57L4.50-8.57L9.89-8.57ZM21.30-14.22L23.28-5.30L24.91-14.22L28.31-14.22L25.29 0L21.74 0L19.83-8.11L17.97 0L14.42 0L11.40-14.22L14.80-14.22L16.44-5.30L18.39-14.22L21.30-14.22ZM30.14-3.19L30.14-3.19Q30.92-3.19 31.44-2.73Q31.95-2.27 31.95-1.54Q31.95-0.82 31.44-0.36Q30.92 0.11 30.14 0.11L30.14 0.11Q29.35 0.11 28.83-0.36Q28.32-0.83 28.32-1.54Q28.32-2.26 28.83-2.72Q29.35-3.19 30.14-3.19Z"/></g></g></svg>